<svg xmlns="http://www.w3.org/2000/svg" viewBox="0 0 276.69 66.09">
    <defs>
        <style>
            .cls-1{fill:#ff855d;}.cls-2{fill:#f29cb6;}.cls-3{fill:#fff27d;}.cls-4{fill:#aee477;}.cls-5{fill:#9fa7ef;}.cls-6{fill:#e7d8ce;}
        </style>
    </defs>
    <title>자산 4</title>
    <g id="레이어_2" data-name="레이어 2">
        <g id="레이어_1-2" data-name="레이어 1">
            <path class="cls-1" d="M32.53,12.79H8.9V35.93H31.84v8.36H8.9V55H32.53v8.36H0V4.43H32.53Z"/>
            <path class="cls-2" d="M276.69,12.79H253.05V35.93H276v8.36H253.05V55h23.64v8.36H244.16V4.43h32.53Z"/>
            <path class="cls-3" d="M42.15,63.38,54.56,0,74.79,45.82,95.75,0,106.9,63.38H97.78L92.09,27.79,74.64,66.09l-17-38.33L51.35,63.38Z"/>
            <path class="cls-4" d="M116.45,33.64a28.87,28.87,0,0,1,9.12-21.38,30,30,0,0,1,21.84-8.94,29.51,29.51,0,0,1,21.61,9,29.48,29.48,0,0,1,9,21.65A29,29,0,0,1,169,55.55a31.13,31.13,0,0,1-42.53,1Q116.45,47.81,116.45,33.64Zm9,.11A21.29,21.29,0,0,0,132,49.82a21.75,21.75,0,0,0,30.73-.11A21.73,21.73,0,0,0,169.1,33.9a21.59,21.59,0,0,0-6.3-15.8,22,22,0,0,0-31,0A21.23,21.23,0,0,0,125.42,33.75Z"/>
            <path class="cls-5" d="M203.42,12.79V63.38h-8.89V12.79H181V4.43h36v8.36Z"/>
            <path class="cls-6" d="M233.77,4.43v59h-8.89V4.43Z"/>
        </g>
    </g>
</svg>